<svg xmlns="http://www.w3.org/2000/svg" width="62.647" height="54.042" viewBox="0 0 62.647 54.042">
  <g id="Group_1385" data-name="Group 1385" transform="translate(-917.564 -927.933)">
    <g id="_130882" data-name="130882" transform="translate(917.564 962.427) rotate(-90)">
      <path id="Chevron_Right" d="M.916,33.56,29.088,61.723a3.163,3.163,0,0,0,4.478-4.469L7.629,31.325,33.563,5.4A3.164,3.164,0,0,0,29.085.925L.913,29.088A3.192,3.192,0,0,0,.916,33.56Z" fill="#fa0"/>
    </g>
    <g id="_130882-2" data-name="130882" transform="translate(925 981.975) rotate(-90)">
      <path id="Chevron_Right-2" data-name="Chevron_Right" d="M.7,25.593,22.183,47.071A2.412,2.412,0,0,0,25.6,43.663L5.818,23.889,25.6,4.116A2.413,2.413,0,1,0,22.181.705L.7,22.183A2.434,2.434,0,0,0,.7,25.593Z" fill="#fa0"/>
    </g>
  </g>
</svg>
