<svg xmlns="http://www.w3.org/2000/svg" width="377" height="12.95" viewBox="0 0 377 12.95">
  <path id="Brush_1_" d="M376.352,4.206a1.907,1.907,0,0,0-.937.341.947.947,0,0,1-.681.227,5.23,5.23,0,0,0-1.306.369c-1.221.511-4.173.624-4.173.17.028-.454-3.321-.539-3.491-.085-.085.2-.483.255-1.022.17-.681-.114-.88-.057-.88.312,0,.4-.17.426-.852.255-.539-.142-.852-.085-.852.085-.71.284-.823-.085-.511-.624.426-.766-.142-1.419-.681-.766a1.71,1.71,0,0,1-1.192.483c-1.249.057-1.306,0-.965-.568.341-.6,1.7-.88,4.57-.937,1.022-.028,2.668-.085,3.69-.114a41.578,41.578,0,0,1,5.109-.028c1.334.028,2.952.057,3.6.057C377.033,3.581,377.487,4.092,376.352,4.206Zm-19.046.4c.795.653-.255,1.107-2.214.965a6.918,6.918,0,0,0-2.214.057.6.6,0,0,1-.568.057,5.039,5.039,0,0,0-1.646.085c-.795.114-2.157.255-3.037.284a7.492,7.492,0,0,0-2.129.312,6.651,6.651,0,0,1-2.611-.057c-1.59-.227-2.214-.2-2.64.057-.4.255-.88.284-1.873.085a4.873,4.873,0,0,0-1.817-.142,31.413,31.413,0,0,1-3.86.142,27.212,27.212,0,0,0-4.371.284,18.346,18.346,0,0,1-3.832.114c-2.47-.142-2.839-.085-2.952.341-.908-.057-3.548,0-3.86.426-.653.823-1.59.852-1.873.057-.255-.71-.255-.71-1.448-.284-.965.341-1.306.341-1.732.057-.4-.284-.823-.284-1.7-.085a4.17,4.17,0,0,1-1.59.114c-.624-.255-4.456.511-4.825.965-.369.483-1.419.539-1.675.085s-1.164-.369-1.7.142c-.4.369-.795.4-2.356.17-2.186-.312-2.072-.312-6.074-.2a27.148,27.148,0,0,0-3.69.284,3.465,3.465,0,0,1-1.788-.17c-1.022-.341-1.249-.341-1.873.114-.795.568-1.731.653-2.157.2-.255-.284-1.93-.2-5.649.284a23.29,23.29,0,0,1-4.456-.028c-.2-.028-1.76.114-3.491.312s-3.832.4-4.684.426-2.7.17-4.087.284c-4.542.454-9.963.312-10.446-.284-.6-.766-.255-1.164.937-1.135.6.028,1.192-.085,1.277-.255.114-.17.426-.2.71-.114a1.527,1.527,0,0,0,1.107-.114A4.193,4.193,0,0,1,256,8.151a2.156,2.156,0,0,0,1.164-.227,1.61,1.61,0,0,1,1.022-.2c.88.028.88.028.2-.71-.681-.71-.71-.71-3.179-.454-1.93.2-2.611.17-3.009-.114-.653-.454-1.561-.483-1.845-.085a.506.506,0,0,1-.6.142,2.033,2.033,0,0,0-1.135.085c-.511.17-.852.17-1.107-.057s-.908-.2-2.441.2c-1.363.341-2.186.426-2.356.227-.454-.483-.852-.341-.937.369-.057.624.028.681.88.568.795-.114,1.022,0,1.391.653.511.823,1.363.823,2.015,0,.6-.738,2.441-.142,2.186.738-.17.624-.114.681.624.738,1.561.057,0,.511-2.271.653-1.93.114-2.242.057-2.555-.369-.312-.454-.483-.483-1.419-.2-.795.227-1.164.227-1.448-.028a.757.757,0,0,0-.908-.085c-2.583,1.334-2.668,1.362-8.175,1.334-2.924,0-5.705.028-6.188.114a30.3,30.3,0,0,1-3.406.142,11.985,11.985,0,0,0-3.236.341,1.841,1.841,0,0,1-.993.2,27.974,27.974,0,0,0-4.031,0c-2.015.057-10.048.284-13.341.369a63.214,63.214,0,0,0-6.812.4c-.483.114-6.926.057-14.334-.2-7.408-.227-16.889-.511-21.062-.6-4.655-.114-7.721-.284-7.919-.454-.227-.2-1.107-.17-2.583.028a8.434,8.434,0,0,1-2.5.142c-.511-.341-17.031-.624-23.361-.4-3.6.142-7.238.2-8.09.17s-3.349-.057-5.535-.057-6.642-.085-9.935-.17c-11.78-.369-14.249-.4-18.166-.227-12.149.6-18.252.426-19.217-.539a5.323,5.323,0,0,0-.823-.653,1.545,1.545,0,0,0-.284.624c-.2,1.164-3.037.965-2.952-.227.057-.795-.823-.795-2.469,0a3.074,3.074,0,0,1-1.306.4,32.278,32.278,0,0,0-3.86-.4c-2.015-.142-5.308-.4-7.323-.6a250.73,250.73,0,0,0-30.485-.2c-10.73.511-9.85.71-11.3-2.81C-.2,4.83-.2,4.83.648,4.092A7.52,7.52,0,0,1,2.891,2.985c.766-.227,2.668-.766,4.258-1.221C12.088.345,29.4.147,38.741,1.452A43.3,43.3,0,0,0,51,1.424c.852-.114,2.583-.255,3.832-.312s3.349-.2,4.684-.284A208.879,208.879,0,0,1,81.091.2c3.662.028,7.039,0,7.522-.057,3.236-.369,19.7-.028,36.021.738,5.45.255,12.546.426,15.725.369,9.708-.17,11.042-.17,24.269.085,7.011.142,13.852.142,15.186.028s6.9-.17,12.347-.085,11.013.057,12.347-.028c1.334-.114,2.611-.17,2.839-.17s4.315.028,9.083.057c8.118.028,18.024.255,24.525.568,1.561.085,3.207.142,3.69.17,2.952.142,5,.4,5.251.681.227.227.568.2,1.221-.114a2.637,2.637,0,0,1,2.583.028c.142.142.624.057,1.135-.17.624-.312.993-.341,1.334-.114a.924.924,0,0,0,.852.085,5.845,5.845,0,0,1,3.293.454.768.768,0,0,0,.852,0c1.561-.766,2.015-.766,3.6.114,1.135.624,1.845.6,1.873-.085.028-.852,2.129-.483,2.7.483.312.568,1.022.312.852-.312.71-.085,1.362-.028,1.845-.085.6-.114.88-.028.88.2,0,.255.341.312,1.334.17a14.2,14.2,0,0,1,2.413-.085,3.954,3.954,0,0,0,1.646-.2c.426-.227.937-.17,2.015.17,1.476.483,1.9.426,3.208-.568.4-.312.71-.312,1.419-.085a21.688,21.688,0,0,0,6.472.17.528.528,0,0,1,.653.142c.142.227.766.284,1.987.2q1.788-.128,1.959.17c.142.227.341.227.766.028a.756.756,0,0,1,.937.028c.255.227.795.227,1.9.028a36.365,36.365,0,0,1,7.21-.028c.312.028,1.391-.028,2.413-.085s2.3-.085,2.839-.057,1.7.085,2.555.142c1.362.085,8.8.057,12.972-.057a5.147,5.147,0,0,1,1.817.2,1.026,1.026,0,0,0,.908-.028.727.727,0,0,1,.937.085c.284.255.624.284,1.419.028a4.475,4.475,0,0,1,2.214-.028,29.814,29.814,0,0,0,3.037.4c1.022.057,3.037.227,4.542.341,1.987.142,2.924.114,3.6-.2.823-.341,1.164-.341,3.207.142a8.215,8.215,0,0,0,2.611.341C352.31,4.149,356.908,4.263,357.306,4.6ZM37.066,5.256c-.965-.028-1.277.369-.993,1.192.312.908.993,1.022,1.448.2C37.946,5.937,37.719,5.256,37.066,5.256ZM70.163,6.7c-.312-.2-1.448.369-1.476.71C69.879,7.669,70.589,6.959,70.163,6.7Zm77.746.255c-.255-.454-.852-.2-.88.4-.028.454.227.511.766.2A.411.411,0,0,0,147.91,6.959Zm2.186-.227a6.805,6.805,0,0,1-.71-.057C148.932,7.328,149.584,7.357,150.1,6.732Zm1.476.483a.548.548,0,0,0-.028.681C152.253,7.243,151.969,6.846,151.571,7.215Zm12.177.681a2.783,2.783,0,0,0-.766-.284,11.613,11.613,0,0,1-1.362-.369c-.511-.17-.624-.085-.766.738-.085.511-.142.965-.142.965C161.336,9.485,163.72,8.691,163.749,7.9Zm8.856.483c-.114-.653-.227-.71-.88-.568-2.413.539-3.406.511-3.974-.057-1.05-1.107-1.533-.454-.738,1.05.71,1.362,1.391,1.675,2.129.965a3.4,3.4,0,0,1,1.731-.369C172.576,9.4,172.747,9.287,172.6,8.378Zm2.044,1.079c.17-.426-.085-.568-.341-.568C174.166,9.315,174.421,9.429,174.648,9.457Zm6.614-.6c.142-.4-.227-.426-1.164-.114-.568.2-.738.142-.88-.227-.624.2-.766.227-1.05-.028a4.786,4.786,0,0,0-2.952-.114c-.085.085-.057.454.114.766a1.007,1.007,0,0,0,1.618.341c.227-.227.483-.2.88.028C178.707,10.025,180.978,9.571,181.262,8.861Zm1.9-.4c-.17.255,0,.4.17.4C183.732,8.861,183.646,8.662,183.164,8.464Zm4.684-.17c-.653-.227-1.135-.028-1.164.511,0,.4.766.738,1.334.568S188.472,8.52,187.847,8.293Zm18.166-.028c.028-.823-.681-.965-1.561-.341-.71.511-1.277.511-1.249,0,0-.312-.2-.369-.908-.2-.511.114-1.419.284-1.987.341-1.164.17-1.306.4-.653,1.221.369.483.6.511,1.476.312.738-.17,1.05-.17,1.135.057.142.511,1.05.4,1.618-.2a2.019,2.019,0,0,1,1.334-.539C205.872,8.974,206.014,8.861,206.014,8.265Zm14.5-.908a5.192,5.192,0,0,0-3.009.312c-.284-.71-.908-.88-2.5-.766-1.022.085-1.419.255-1.533.624-.17.6-1.221.681-1.221.085.028-.483-.852-.88-1.107-.511-.341.511-1.731.653-1.9.17-.142-.369-.255-.369-.852.114-1.391,1.135.568,2.441,2.044,1.334a.958.958,0,0,1,.993.028,11.153,11.153,0,0,0,1.788.653c1.476.454,1.788.426,2.611-.085A1.352,1.352,0,0,1,217.4,9.23a6.087,6.087,0,0,0,3.349,0C221.285,8.974,221.086,7.527,220.518,7.357Zm1.419-.057c.653.2,1.05-.255.624-.71-.2-.227-.426-.17-.738.114C221.455,7.073,221.455,7.158,221.938,7.3Zm18.393.142c-.085-.284-.738-.426-2.555-.511a12.007,12.007,0,0,1-2.725-.312c-.17-.114-.426.114-.6.511-.341.823-.738.908-.993.227q-.17-.468-.766-.341a7.3,7.3,0,0,1-2.186-.17c-1.022-.2-1.7-.2-1.873-.028a1.754,1.754,0,0,1-1.079.284,3.492,3.492,0,0,0-1.5.4c-.624.4-.766.369-1.391-.057-.795-.568-1.306-.4-1.334.426,0,.4-.142.511-.426.4-.624-.255-.539.312.114.681a2.5,2.5,0,0,0,1.76.057,12.08,12.08,0,0,1,2.044-.227,2.2,2.2,0,0,0,1.277-.369,4.169,4.169,0,0,1,3.52-.227c.312.255.4.454.2.568-.539.312-.341.71.312.71a4.392,4.392,0,0,1,1.221.2.964.964,0,0,0,1.107-.369,2.008,2.008,0,0,1,1.646-.539c.88.028,1.107-.057,1.107-.511.028-.71.653-.908,2.072-.624C240.218,7.811,240.416,7.782,240.331,7.442Zm24.78-1.192a.937.937,0,0,0-.738.284c-1.561-.937-5.053.341-4.485,1.419.426.823,2.072.766,3.349-.085a4.471,4.471,0,0,1,1.59-.766C265.509,7.1,265.793,6.278,265.111,6.249Zm9.622.6c.028-.766-3.009-1.391-4-.823-.483.284.255.852,1.221.937.511.057,1.135.142,1.362.2C273.854,7.328,274.734,7.129,274.734,6.846Zm5.081-.937a.654.654,0,0,0-1.107.511.472.472,0,0,0,.511.539A.64.64,0,0,0,279.815,5.909Zm1.448.4c.028-.511-.6-.426-.795.085C281.064,6.732,281.262,6.533,281.262,6.306Zm2.129.227a.523.523,0,0,0-.085-.624c-.369-.4-1.277-.085-1.135.4C282.341,6.76,283.136,6.931,283.391,6.533Zm8.828-1.164a.418.418,0,0,0-.426.426C292.162,6.221,292.361,6.051,292.219,5.37Zm2.98-.426c-.312.028-.6.2-.6.369-.028.341.681.539.965.284C295.966,5.2,295.8,4.887,295.2,4.944Zm20.579.852c.284-.426-.284-.937-.823-.766a.668.668,0,0,0-.454.6C314.473,6.108,315.495,6.249,315.778,5.8Z" transform="translate(-0.002 0.003)" fill="#f8c801"/>
</svg>
