<?xml version="1.0" encoding="UTF-8" standalone="no"?> <svg xmlns="http://www.w3.org/2000/svg" viewBox="0 0 512 512"><title>Cupcake</title><g id="Cupcake"><path d="M411.19,312.23a53.38,53.38,0,0,1-1.33,11.78c-8.74-4.37-20.27-7.03-32.88-7.03-11.97,0-22.95,2.39-31.51,6.36a19.436,19.436,0,0,1-16.37,0c-8.56-3.97-19.54-6.36-31.51-6.36s-22.94,2.39-31.5,6.36a19.4589,19.4589,0,0,1-16.38,0c-8.56-3.97-19.53-6.36-31.5-6.36s-22.95,2.39-31.51,6.36a19.4358,19.4358,0,0,1-16.37,0c-8.56-3.97-19.54-6.36-31.51-6.36-13.31,0-25.4,2.96-34.3,7.77-.01,0-.01,0-.02.01h-.01a52.5944,52.5944,0,0,1-1.51-12.53c0-16.83,8.02-32.56,21.92-46,.03-.03.07-.06.1-.09.57-.55,1.14-1.11,1.73-1.66a125.2391,125.2391,0,0,1,24.2-17.1c16.82-7.74,43.94-24.42,86.43-3.84,44.4,21.51,72.34,28.33,117.44,13.01.67-.24,2.35-.86,4.35-1.61a21.2021,21.2021,0,0,1,20.2,2.83c.03.03.06.05.09.08a100.3871,100.3871,0,0,1,15.64,14.52c.01.01.02.02.02.03C405.4,284.4,411.19,297.92,411.19,312.23Z" style="fill:#b44031"/><path d="M104.49,324.76h.01l-.01.01Z" style="fill:#b44031"/><path d="M395.0814,272.37a100.5818,100.5818,0,0,0-15.6373-14.5206c-.03-.03-.0692-.0493-.0989-.079a21.169,21.169,0,0,0-20.1842-2.827c-2.0066.7512-3.6871,1.374-4.3593,1.6013-45.1033,15.3211-73.047,8.5007-117.4388-13.0082-42.4839-20.58-69.6073-3.8944-86.4309,3.8452a125.3172,125.3172,0,0,0-24.1975,17.1,30.7265,30.7265,0,0,0,8.4608-28.678,25.599,25.599,0,0,0-2.5124-6.8417,26.5662,26.5662,0,0,1-3.3585-12.5788c0-14.303,12.583-27.3506,33.3209-37.3045a5.1119,5.1119,0,0,0,1.028-8.55c-8.2834-6.9093-12.9687-14.7774-12.9687-23.13,0-13.9472,13.0575-26.56,34.092-35.5747q.5933-.2518,1.1862-.5041a5.1084,5.1084,0,0,0,1.631-8.3129c-.6229-.6623-1.2257-1.3147-1.7892-1.9967-4.28-5.0609-6.6424-10.6358-6.6424-16.4973A22.1018,22.1018,0,0,1,180.487,77.07c5.12-14.58,25.087-26.58,51.7556-31.9372a157.8824,157.8824,0,0,1,27.2025-2.9555l-.05-.05s24.6918-4.1119,36.5335-22.6158a5.3931,5.3931,0,0,1,9.6573,1.196,106.02,106.02,0,0,0,11.99,24.5632A55.1275,55.1275,0,0,0,332.0474,59.88c9.8748,6.939,15.6869,15.45,15.6869,24.6326,0,6.6325-3.0346,12.9092-8.4316,18.494a5.3115,5.3115,0,0,0-1.453,3.0544,5.0479,5.0479,0,0,0,3.084,5.2585c1.631.6821,3.2223,1.3839,4.7545,2.1153,18.9389,8.8765,30.5237,20.817,30.5237,33.9635,0,8.3525-4.6854,16.2206-12.9588,23.13a5.1066,5.1066,0,0,0,1.0181,8.55c20.7379,9.9539,33.321,23.0015,33.321,37.3045,0,4.8958-4.1755,13.0835-5.9923,16.4143a25.4745,25.4745,0,0,0-2.1684,5.2017C387.6658,244.194,385.78,257.4207,395.0814,272.37Z" style="fill:#f08daa"/><path d="M391.6,232.7975c1.8168-3.3308,5.9924-11.5186,5.9924-16.4143,0-14.303-12.5833-27.3506-33.3211-37.3045a5.1064,5.1064,0,0,1-1.018-8.55c8.2733-6.91,12.9587-14.7775,12.9587-23.13,0-13.1464-11.5848-25.0871-30.5237-33.9635-1.5322-.7315-3.1235-1.4331-4.7545-2.1153a5.048,5.048,0,0,1-3.084-5.2585,5.31,5.31,0,0,1,1.453-3.0543c5.397-5.5849,8.4317-11.8615,8.4317-18.4941,0-9.1828-5.8123-17.6936-15.687-24.6325a55.1278,55.1278,0,0,1-14.471-14.6094,106.0219,106.0219,0,0,1-11.99-24.5632,5.393,5.393,0,0,0-9.6572-1.1961c-11.8418,18.504-36.5337,22.616-36.5337,22.616l.05.0494a158.1717,158.1717,0,0,0-26.6144,2.8444c35.8448,23.7959,85.6085,64.737,91.2325,111.4819,8.89,73.8921-33.166,106.5072-33.2136,106.5441,19.8478,3.6105,39.3471,1.8548,63.9522-6.5032.6721-.2274,2.3525-.85,4.3592-1.6013a21.1693,21.1693,0,0,1,20.1842,2.827c.03.03.0694.0493.0989.079A100.5872,100.5872,0,0,1,395.0815,272.37c-9.302-14.9489-7.4157-28.1756-5.65-34.37A25.4777,25.4777,0,0,1,391.6,232.7975Z" style="fill:#f078a6"/><circle cx="273.3294" cy="164.9939" r="8.4904" style="fill:#fff"/><circle cx="204.2182" cy="233.6411" r="8.4904" style="fill:#fff"/><path d="M344.7986,113.02a75.1608,75.1608,0,0,1-16.25,10.6952c-17.5452,8.7677-40.6356,13.5913-65.0011,13.5913q-2.1549,0-4.2921-.0521a5.4333,5.4333,0,0,1-5.2861-5.44h0a5.4377,5.4377,0,0,1,5.5881-5.4274q1.9824.0465,3.99.0462c32.57,0,60.85-9.1532,75.113-22.5962a5.2366,5.2366,0,0,0-.81,2.2241,5.0479,5.0479,0,0,0,3.084,5.2585C342.2582,111.8734,343.5433,112.4467,344.7986,113.02Z" style="fill:#f04f9a"/><path d="M223.6827,125.5857v.0112a5.4409,5.4409,0,0,1-6.9877,5.2163,112.7736,112.7736,0,0,1-18.1587-7.0981,75.4959,75.4959,0,0,1-16.31-10.7445c.85-.3855,1.7-.7711,2.57-1.1467q.5933-.2518,1.1862-.5041a5.0976,5.0976,0,0,0,1.8286-8.0855c7.2474,7.1027,18.3693,13.0489,31.9762,17.1436A5.4475,5.4475,0,0,1,223.6827,125.5857Z" style="fill:#f069aa"/><path d="M367.86,180.87a101.2637,101.2637,0,0,1-19.71,11.21,152.3147,152.3147,0,0,1-16.2765,5.9961,5.45,5.45,0,0,1-7.0434-5.2107h0a5.446,5.446,0,0,1,3.8483-5.2c13.9279-4.29,25.55-9.9188,33.9017-16.4555a5.1042,5.1042,0,0,0,1.69,7.87C365.5,179.66,366.69,180.26,367.86,180.87Z" style="fill:#f04f9a"/><path d="M290.1368,201.2672h0a5.447,5.447,0,0,1-5.01,5.4287c-7.0576.57-14.2733.86-21.5792.86-31.779,0-61.8182-5.4959-84.6022-15.4793a100.6845,100.6845,0,0,1-19.7791-11.2586c1.1269-.5931,2.2933-1.1762,3.4794-1.74a5.1058,5.1058,0,0,0,1.1861-8.4019c19.2057,15.4891,56.6586,26.0065,99.7158,26.0065,7.0746,0,13.9959-.2828,20.7049-.83A5.4326,5.4326,0,0,1,290.1368,201.2672Z" style="fill:#f069aa"/><path d="M275.1814,66.5427c0,11.96-22.6259,21.6472-50.53,21.6472-18.9882,0-35.535-4.4876-44.1643-11.12,5.12-14.58,25.087-26.58,51.7556-31.9372C256.5391,46.7043,275.1814,55.6992,275.1814,66.5427Z" style="fill:#f39ab8"/><path d="M275.1814,66.5427c0,11.96-22.6259,21.6472-50.53,21.6472-18.9882,0-35.535-4.4876-44.1643-11.12,5.12-14.58,25.087-26.58,51.7556-31.9372C256.5391,46.7043,275.1814,55.6992,275.1814,66.5427Z" style="fill:#f39ab8"/><path d="M236.585,62.0445c.563-5.448-7.31-10.8771-18.4231-13.2744-11.9216,3.83-21.7991,9.1243-28.6263,15.38,4.3871,3.3287,11.7,5.9484,20.161,6.8227C223.8856,72.4387,235.924,68.4415,236.585,62.0445Z" style="fill:#ffbac3"/><circle cx="344.7986" cy="225.1507" r="8.4904" style="fill:#f9d129"/><circle cx="227.8342" cy="96.1473" r="8.4904" style="fill:#f9d129"/><path d="M298.5067,68.7539a26.18,26.18,0,0,0,49.5514-14.471,26.4809,26.4809,0,0,1-47.99-11.1795A26.1749,26.1749,0,0,0,298.5067,68.7539Z" style="fill:#ff4a45"/><path d="M300.0685,43.1034a26.4809,26.4809,0,0,0,47.99,11.1795,26.1763,26.1763,0,0,0-47.99-11.1795Z" style="fill:#ff6965"/><path d="M323.8652,55.377q-.0937,0-.1875-.003a5.4892,5.4892,0,0,1-5.3134-5.6421c.3232-11.2036,8.01-33.2744,34.788-36.6142a5.5,5.5,0,1,1,1.3614,10.915c-23.99,2.9927-25.1182,25.103-25.1543,26.0425A5.5132,5.5132,0,0,1,323.8652,55.377Z" style="fill:#b44031"/><path d="M426.4755,344.8017c0-15.3661-22.1609-27.8228-49.4976-27.8228-11.97,0-22.9471,2.3886-31.5062,6.3639a19.4441,19.4441,0,0,1-16.3729,0c-8.5589-3.9753-19.5361-6.3639-31.5061-6.3639s-22.9471,2.3886-31.5061,6.3639a19.4443,19.4443,0,0,1-16.373,0c-8.559-3.9753-19.536-6.3639-31.5061-6.3639s-22.9471,2.3886-31.5062,6.3639a19.4441,19.4441,0,0,1-16.3729,0c-8.5591-3.9753-19.5361-6.3639-31.5062-6.3639-27.3367,0-49.4976,12.4567-49.4976,27.8228,0,4.5325,1.9405,8.8077,5.361,12.5889l-.0025,0s42.2442,46.487,55.9827,98.9131h.0079c3.4712,23.54,49.78,42.1791,106.409,42.1791s102.9379-18.6394,106.4091-42.1791H363.5c13.7383-52.4261,55.9827-97.2363,55.9827-97.2363l-.0073-.0007C423.9167,354.8952,426.4755,350.0172,426.4755,344.8017Z" style="fill:#f9db54"/><path d="M218.2075,316.9789c-11.97,0-22.9471,2.3886-31.5061,6.3639a19.4445,19.4445,0,0,1-16.3731,0c-8.559-3.9753-19.5361-6.3639-31.5061-6.3639-.5309,0-1.0561.0131-1.583.0225a59.56,59.56,0,1,0,118.1624,10.6332c0-.8925-.0285-1.7783-.0673-2.6613a19.4146,19.4146,0,0,1-5.6206-1.63C241.1546,319.3675,230.1776,316.9789,218.2075,316.9789Z" style="fill:#f9ea76"/><path d="M172.6122,324.2266l9.8743,53.67a5.4365,5.4365,0,0,0,10.6993-1.9354l-9.4847-51.5151A19.45,19.45,0,0,1,172.6122,324.2266Z" style="fill:#f9a213"/><path d="M262.5186,376.93v-52.343a19.4456,19.4456,0,0,1-10.8731-.4712V376.93a5.4366,5.4366,0,0,0,10.8731,0Z" style="fill:#f9a213"/><path d="M324.8935,382.2784a5.4292,5.4292,0,0,0,6.3168-4.3819l9.83-53.1189a19.44,19.44,0,0,1-10.8722-.9792l-9.6568,52.1627A5.4362,5.4362,0,0,0,324.8935,382.2784Z" style="fill:#f9a213"/><path d="M426.4756,344.8018c0-11.0867-11.5386-20.6565-28.2315-25.1282-.23.2671-.455.5359-.667.8064-15.12,21.4-40.22,56.92-64.88,91.89-38.1791,54.13-117.4629,60.8663-191.2743,17.6525a180.826,180.826,0,0,1,9.2431,26.2815h.0079c3.4712,23.54,49.78,42.179,106.4091,42.179s102.9378-18.6392,106.4089-42.179H363.5c13.7382-52.4261,55.9826-97.2364,55.9826-97.2364l-.0073-.0007C423.9167,354.8953,426.4756,350.0171,426.4756,344.8018Z" style="fill:#f9d129"/><circle cx="352.8691" cy="411.5548" r="8.4442" style="fill:#fff"/><path d="M390.7814,359.4041c.0012-.0182-4.8914,5.6145-5.86,6.8892-1.94,2.5514-3.7837,5.2261-5.5533,7.9651-1.7328,2.7645-3.431,5.5722-4.9845,8.4743-.8147,1.4306-1.5238,2.92-2.2933,4.3806-.74,1.4758-1.433,2.9768-2.1552,4.4674l-.124.2558a6.8808,6.8808,0,0,1-12.6624-5.3416c.6132-1.6944,1.2011-3.4015,1.8412-5.0913.6713-1.6774,1.2843-3.382,2.0126-5.0421,1.3772-3.3538,2.9275-6.6464,4.5434-9.9219,1.6578-3.2577,3.42-6.4794,5.3514-9.6485.9661-1.5858,1.9663-3.1582,3.0393-4.7231.5267-.7847,1.0859-1.5638,1.658-2.3522,0,0,1.6729-2.19,1.9657-2.5268a9,9,0,1,1,13.2209,12.2151Z" style="fill:#fff"/><path d="M395.08,272.37a100.3871,100.3871,0,0,0-15.64-14.52c-.03-.03-.06-.05-.09-.08a21.2021,21.2021,0,0,0-20.2-2.83c-2,.75-3.68,1.37-4.35,1.61-24.6052,8.3582-44.1035,10.1132-63.9528,6.5014-.075.1219-19.2642,31.3129-62.9893,54.4751A71.058,71.058,0,0,1,249.71,323.34a19.4589,19.4589,0,0,0,16.38,0c8.56-3.97,19.53-6.36,31.5-6.36s22.95,2.39,31.51,6.36a19.436,19.436,0,0,0,16.37,0c8.56-3.97,19.54-6.36,31.51-6.36,12.61,0,24.14,2.66,32.88,7.03a53.38,53.38,0,0,0,1.33-11.78c0-14.31-5.79-27.83-16.09-39.83C395.1,272.39,395.09,272.38,395.08,272.37Z" style="fill:#83260d"/><path d="M376.98,305.98c-13.24,0-25.74,2.55-36.14,7.39a8.4925,8.4925,0,0,1-7.11,0c-10.4-4.84-22.9-7.39-36.14-7.39-13.23,0-25.73,2.55-36.14,7.39a8.47,8.47,0,0,1-7.1,0,75.1638,75.1638,0,0,0-12.01-4.33c-4.48,2.9-9.3,5.74-14.46,8.48a70.714,70.714,0,0,1,21.83,5.82,19.4355,19.4355,0,0,0,16.38,0c8.56-3.97,19.53-6.36,31.5-6.36s22.95,2.39,31.51,6.36a19.4127,19.4127,0,0,0,16.37,0c8.56-3.97,19.54-6.36,31.51-6.36,12.6,0,24.1,2.65,32.84,7.01.01.01.03.01.04.02a53.2965,53.2965,0,0,0,1.33-11.5A88.1632,88.1632,0,0,0,376.98,305.98Z" style="fill:#61260d"/><path d="M242.34,309.04c-4.48,2.9-9.3,5.74-14.46,8.48a84.5293,84.5293,0,0,0-9.67-.54c-11.97,0-22.95,2.39-31.51,6.36a19.4124,19.4124,0,0,1-16.37,0c-8.56-3.97-19.54-6.36-31.51-6.36-13.31,0-25.4,2.96-34.3,7.77-.01,0-.01,0-.02.01h-.01a52.4371,52.4371,0,0,1-1.5-11.53c10.24-4.7,22.76-7.25,35.83-7.25,13.24,0,25.74,2.55,36.14,7.39a8.4925,8.4925,0,0,0,7.11,0c10.4-4.84,22.9-7.39,36.14-7.39A93.2283,93.2283,0,0,1,242.34,309.04Z" style="fill:#83260d"/></g></svg>