<svg id="Group_1355" data-name="Group 1355" xmlns="http://www.w3.org/2000/svg" width="24.359" height="23.25" viewBox="0 0 24.359 23.25">
  <g id="Group_1352" data-name="Group 1352">
    <path id="Path_4264" data-name="Path 4264" d="M88.9,592.557H79.567a7.522,7.522,0,0,1-7.512-7.513v-8.224a7.52,7.52,0,0,1,7.512-7.512H88.9a7.52,7.52,0,0,1,7.513,7.512v8.224A7.522,7.522,0,0,1,88.9,592.557Zm-9.334-21.58a5.849,5.849,0,0,0-5.842,5.842v8.224a5.849,5.849,0,0,0,5.842,5.844H88.9a5.85,5.85,0,0,0,5.844-5.844v-8.224a5.849,5.849,0,0,0-5.844-5.842Z" transform="translate(-72.055 -569.307)" fill="#a80e0e"/>
  </g>
  <g id="Group_1353" data-name="Group 1353" transform="translate(5.493 4.936)">
    <path id="Path_4265" data-name="Path 4265" d="M81.871,585.494a6.687,6.687,0,1,1,6.687-6.687A6.694,6.694,0,0,1,81.871,585.494Zm0-11.706a5.018,5.018,0,1,0,5.017,5.019A5.024,5.024,0,0,0,81.871,573.789Z" transform="translate(-75.184 -572.119)" fill="#a80e0e"/>
  </g>
  <g id="Group_1354" data-name="Group 1354" transform="translate(17.378 3.755)">
    <path id="Path_4266" data-name="Path 4266" d="M84.728,572.835a1.387,1.387,0,1,1-1.387-1.389A1.386,1.386,0,0,1,84.728,572.835Z" transform="translate(-81.954 -571.446)" fill="#a80e0e"/>
  </g>
</svg>
