<svg xmlns="http://www.w3.org/2000/svg" width="784.601" height="171.329" viewBox="0 0 784.601 171.329">
  <g id="Group_1389" data-name="Group 1389" transform="translate(0.024 38.84) rotate(-3)">
    <path id="Path_4313" data-name="Path 4313" d="M633.44,58.32l.01.99a53.444,53.444,0,0,0,10.94,1.33,32.308,32.308,0,0,0,4.87-.36l.04-.98A24.516,24.516,0,0,0,633.44,58.32Z" transform="translate(133.176)" fill="#fa0"/>
    <path id="Path_4314" data-name="Path 4314" d="M737.239,84.49c-2.669.1-5.387.06-8.031.02-1.133-.02-2.267-.03-3.388-.04h-.012q-20.657-.615-41.314-1.24c-.439-.01-.9-.03-1.353-.05-2.791-.13-5.667-.26-7.592.93-3.242,2-5.716,1.47-8.641-.04-1.133-1.9-2.925-1.46-4.521-1.07a9.821,9.821,0,0,1-1.779.33c-1.852-.21-2.328.03-2.51.53a1.116,1.116,0,0,0-.024.66c-2.949-1.39-6.288-1.02-9.506-.47-.707-1.38-2.352-1.51-3.961-1.62a16.038,16.038,0,0,1-1.633-.17l-.353-.06c-.171-.03-.341-.06-.512-.1-1.536-.3-3.132-.62-4.729.23v-.01a9.258,9.258,0,0,1-4.546.36,15.361,15.361,0,0,0-3.108-.04c-.341-.11-.682-.25-1.012-.39a5.019,5.019,0,0,0-3.242-.52c-.9-1.27-2.291-1.04-3.644-.8-.329.06-.646.11-.963.15a9.984,9.984,0,0,1-1.45-.62,5.8,5.8,0,0,0-3.6-.83l-4.168-.6a1.954,1.954,0,0,0-1.572-1.2l.061-.09-.914.06H609.2l-.134.01v.01a2.592,2.592,0,0,0-2.316,1.32l-1.109.61a7.566,7.566,0,0,1-2.705-.58,6.1,6.1,0,0,0-4.473-.3l-6.142.65c-1.06-.17-2.121-.35-3.193-.52a10.406,10.406,0,0,0-5.07-.66,20.24,20.24,0,0,1-2.584-.01l-1.426-.15c-2.937-1.41-6.106-1.12-9.165-.84-.914.08-1.852.17-2.754.21-.695-.01-1.4-.08-2.1-.15-1.925-.18-3.912-.37-5.74.59l-1.986-.29a3.239,3.239,0,0,0-1.926-.72l.146-.56-2.62-.24-.024.5h0l-.024-.5-6.63.71c-1.828-.01-3.644-.01-5.472-.01a15.618,15.618,0,0,0-5.606-.31,27.336,27.336,0,0,1-3.266.09h0l-7.751-.64a1.866,1.866,0,0,0-.743-.33c-.524-.56-1.048-1.11-1.56-1.67l.768-.6,2.06-.76c.756-.06,1.56-.08,2.352-.1,3.3-.07,6.7-.15,7.629-3.4l.073-.26-.841-1.51-.11-.05c-1.731-.71-2.06-1.35-2.1-1.67-.085-.72.951-1.78,1.682-2.51a.812.812,0,0,0,.439-.31l5.131-.42,2.157.13h0l6.459.08,1.267.41.1-.05a2.332,2.332,0,0,1,.914-.23l.853-.15-.073.51,2.632.2.707-.17,1.572-.39,4.326,1.07,2.242-.27c1.048.14,2.108.28,3.193.42,1.8-.05,3.607-.09,5.411-.13l1.206-.03,2.316.56,2.1.39.049-.01a23.944,23.944,0,0,1,7.41-.19,30.764,30.764,0,0,0,5.838.09q6.087-.1,12.175-.22l6.544.56h0l.11.01c1.206.1,2.4.22,3.607.33,3.156.31,6.386.62,9.652.62a40.132,40.132,0,0,0,5.557-.36c.756.07,1.523.12,2.291.17a31.45,31.45,0,0,1,5.045.6,11.633,11.633,0,0,0,2.62.33,6.652,6.652,0,0,0,4.936-2.05l.171-.17-.024-.28c-.037-.49-.061-.98-.085-1.48l-.024-.48-.353.02a28,28,0,0,1-5.8-.52c-2.815-.45-5.716-.91-8.738-.08-4.729-1.34-9.75-1.26-14.612-1.18-.9.01-1.792.03-2.693.04h-.146v.01a16.757,16.757,0,0,1-3.156-.16c-1.9-.22-3.875-.44-5.7.54a27.321,27.321,0,0,0-13.674-1.59c-3.936.43-8.519.67-12.626-.88a.954.954,0,0,1-.085-.56c.146-.72,1.28-1.45,1.986-1.89.6-.15,1.206-.29,1.816-.44.853.01,1.743.1,2.608.18.926.09,1.852.19,2.779.19a7.613,7.613,0,0,0,4.253-1.1l1.194-.77-.573-.06a29.98,29.98,0,0,1,7.263.14,36.582,36.582,0,0,0,6.569.26,51.618,51.618,0,0,1,9.189.33,52,52,0,0,0,10.7.25,49.467,49.467,0,0,1,7.885.02c1.852.1,3.778.2,5.606.17h.158l.11-.15a3.53,3.53,0,0,0,.414-.87c.28-.73.524-1.35,2.267-1.17,1,.11,1.121.4,1.121.41.049.13-.158.58-.256.83l-.28.64.427.21a6.046,6.046,0,0,0,1.974.58,149.631,149.631,0,0,1,18.6.18c2.06.11,4.119.21,6.167.29,1.243.05,2.5.12,3.754.19,2.047.12,4.119.24,6.179.24,4.582,0,9.043-.61,12.882-3.18,1.572.1,3.23.18,4.96.18a40.24,40.24,0,0,0,10.7-1.3l-.073-.99-15.782-.12c-2.693-.09-5.374-.16-8.068-.23-6.045-.16-12.309-.32-18.439-.67-2.352-.13-4.753-.21-7.068-.29-6.276-.21-12.772-.43-18.975-1.73-1.913-.03-3.047-.55-3.364-1.56l-.11-.35-.268.05c-.548.11-1.1.22-1.67.32a9.882,9.882,0,0,0-5.435.37c-1.328-1.33-3.632-1.5-5.253-1.21a19.246,19.246,0,0,1-6.081-.15,33.408,33.408,0,0,0-3.51-.34v.48l-.146-.43c-4.826,2.52-8.336,2.36-11.383-.5l-.134-.12-4.143,1.24-.122.07c-.146.13-.292.25-.451.38q-3.163-.945-6.337-1.89l-.11-.03-1.06.58-6.52-1.29-1.3.61a25.267,25.267,0,0,1-9.408-.95c-.171-.45-.353-.89-.524-1.34.085-.05.171-.09.244-.14.914-.49,1.865-.99,2.06-2.02l.11-.59-.439-.03a146.34,146.34,0,0,0-23.314.14l-.134.01-.1.12c-.451.58-1.353.59-2.23.6-.329,0-.67.01-1,.04h0l-.122.01h-.061l-.573.06v-.03l-.573.09-.207.02v.01l-3.071.48-.877-.7-2.315-.44-4.5.11a13.781,13.781,0,0,0-4.96.07c-2.1.29-4.083.56-6-.34l-.073-.02a49.293,49.293,0,0,1-8.762-2.48c-.67-.24-1.341-.48-2.047-.72a15.638,15.638,0,0,0-2.279-.2c-1.56-.07-3.169-.13-4.18-1.12l-.11-.11-.134.02a1.756,1.756,0,0,1-.89-.12,13.437,13.437,0,0,0-6.983.29c-3.729,1.66-5.764.41-8.116-1.04l-.134-.08-5.545-.5q-8.354-.255-16.684-.52l-3.29-.15a6.564,6.564,0,0,1-3.339-.15l-3.205-.11-2.364-.18a26.856,26.856,0,0,1-7.751-.2l-.085-.01-.085.04a5.446,5.446,0,0,1-.817.31l-.731-.07.024-.07-.585.02-.232-.02-.012.02a73.736,73.736,0,0,1-10.664-.72,60.755,60.755,0,0,0-13.393-.56,21.262,21.262,0,0,1-3.571-.04c-.561-.04-1.121-.08-1.67-.09l-2.8-.09a179.511,179.511,0,0,0-19.4.09l-5.2-.88-2.718.26-.073-.08-.609.15.085.99.11-.01c-1.828.59-3.461,1.01-5.63-.1-2.84-1.46-6.374-1.41-9.8-1.36-.634.01-1.267.02-1.9.02-2.779-.01-5.411-.02-5.618-2.08l-.037-.3-.427-.2c-.268-.13-.524-.25-.792-.38l-.1-.05-.1.03a6.446,6.446,0,0,1-3.376.24l-4.473-.17-.049.01c-3.778,1.23-7.422.5-10.932-.2-1.206-.24-2.462-.49-3.68-.65-1.889-.25-3.778-.53-5.667-.81a136.93,136.93,0,0,0-15.819-1.71h-.073l-2.705-.31a2.613,2.613,0,0,1-.061-.3l-.061-.43-.317.03a8.877,8.877,0,0,1-4.509-.93,14.911,14.911,0,0,0-2.316-.8l-1.584-.21-2.681.53-.037.37a.423.423,0,0,1-.037.13l-1.9-.29h-.061l-19.755-2.11c-.585-.03-1.182-.06-1.779-.08l-7.3-.19-1.938-.09-2.425-.36-.938-.13-2.108-.06q-15.282-.33-30.565-.62c-4.473-.09-9.091-.18-11.98-2.89h0c-.171-.19-.341-.39-.512-.58a2.78,2.78,0,0,0-.512-1.63c-.609-.79-1.731-1.07-3.51-.87l-5.2-.57-.28,1.12c-.122.5-.256,1-.39,1.5-2.218.27-2.3-.38-2.4-1.13a2.649,2.649,0,0,0-.451-1.37l-.244.36-.037-.49a24.147,24.147,0,0,1-5.825-.15,21.827,21.827,0,0,0-6.7-.02l.28-.41-2.827-.51c-1.292,0-2.6.01-3.888.03-3.144.03-6.4.06-9.64-.09-1.718-.08-3.851-.17-4.936-1.31l-.1-.1H173.1c-.061,0-.122.01-.183.01l.219-1.73-.3-.13c-3.693-1.53-7.861-1.7-11.907-1.86-1.316-.05-2.681-.11-4-.21a.822.822,0,0,0-.451-.22c-2.072-1.83-4.814-1.72-7.483-1.6a22.994,22.994,0,0,1-3.717-.05c0-.07-.012-.14-.012-.21H144.9l.024-.5-6.739-.65c-1.45.1-2.888.2-4.326.31l-2.121-.52-1.231.31-4.424-.44-4.107-.03-.073.06a3.367,3.367,0,0,1-2.267.33q-.4-.03-.8-.03V1.64h-1.536l-2.145-.6-.073.49.012-.53c-1.1.04-2.194.07-3.3.1l-.975-.39-2.316.52c-2.194-.12-4.448-.13-6.617-.13A59.987,59.987,0,0,1,88.653.11L86.4,0,70.7,1.75v.03l-1.5-.09V1.68h-.11l-.012.02-3.79.45-.11.04A49.056,49.056,0,0,1,59,5.34a18.845,18.845,0,0,1-2.632.65c-2.011.39-4.07.81-5.058,2.43H51.3l-.037.06c-.024.04-.049.07-.073.11l-.487.93-2.011.59a4.362,4.362,0,0,0-4.29,2.33,7.13,7.13,0,0,1-.78,1c-3.766,1.17-4.655,3.52-5.362,5.64l-.037.02-.049.26-.317.94.134-.06-.512,2.47a9.965,9.965,0,0,1-1.548,2.22c-.963,1.15-1.962,2.35-2.023,3.79a3.612,3.612,0,0,0,.658,2.15c1.121,1.67.975,3.36-.475,5.45A4.015,4.015,0,0,0,31,38.07l-5.07,1.74a2.633,2.633,0,0,0-2.559.84,2.754,2.754,0,0,0-1.292,2.81c-3.949,1.56-3.839,4.02-3.741,6.2a6.952,6.952,0,0,1-.207,2.64,2.1,2.1,0,0,0-1.207,1.41,1.741,1.741,0,0,0,.158,1.04,3.3,3.3,0,0,0,.28,2.84l-.037.14c-.427,1.78-.865,3.61-.134,5.52l.012.04h0a4.8,4.8,0,0,1,.049,3.18c-.3,1.55-.682,3.45.987,5.13-.024.35-.049.7-.061,1.06l-.817,1.13-1.548.76c-1.219.02-1.962.42-2.255,1.26L12.9,76.85c-5.265,3-7.7,5.61-7.909,8.46-.183,2.54,1.353,5.17,4.984,8.51.049.34.1.69.134,1.03l.061.42a6.611,6.611,0,0,0-.8,3.95c.024,1.45.049,2.7-1.133,3.89-3.193.71-4.936,2.3-5.484,4.99l-.451.5c-.89.11-2,.41-2.157,1.57a2.153,2.153,0,0,0-.122,1.23,4.206,4.206,0,0,0,1.95,2.29c.707.53,1.5,1.12,1.6,1.71l.024.12.061.1c.512.81,1.036,1.63,1.548,2.44l1.182,1.88.061.08a.672.672,0,0,1,.171.29l.085.29.232.01a3.34,3.34,0,0,1,2.681,2.07l.1.19L15.97,124a2.444,2.444,0,0,0,1.913.76,5.491,5.491,0,0,0,1.024-.11l7.142,1,1.243.17c.561.16,1.109.32,1.657.48h.012a4.281,4.281,0,0,0,1.6.32,3.979,3.979,0,0,0,1.182-.18l3.376.36a7.636,7.636,0,0,0,3.534.71c.573,0,1.158-.03,1.767-.07a7.775,7.775,0,0,0,4.485.35l.073-.02,9.652.65-.049.05.78-.01.341.02.024-.03,2.523-.02.024.02h.1l3.108-.03.682-.01h.024c.719.11,1.426.24,2.145.37a29.244,29.244,0,0,0,5.4.66,12.273,12.273,0,0,0,3.778-.56h.024l2.291.06.024-.01c.414.05.829.11,1.243.17a22.435,22.435,0,0,0,2.961.3l8.275.14c10.4.18,21.132.36,31.7.36h.11c5.63,0,11.346-.21,16.867-.42,2.559-.09,5.118-.19,7.69-.26h0l3.156.01.012-.01a32.4,32.4,0,0,1,5.74.05c1.206.08,2.413.17,3.62.17a13.8,13.8,0,0,0,6.118-1.19l1.986.47a3.356,3.356,0,0,0,1.865.58,3.436,3.436,0,0,0,1.986-.67l1.06-.47c1.633.03,3.278,0,4.875-.02a70.149,70.149,0,0,1,9.018.23c.561.06,1.146.16,1.755.27,1.926.34,4.095.71,6.142-.09.975.09,1.962.13,2.949.13a33.857,33.857,0,0,0,4.923-.36h.012l8.75-.54a22.989,22.989,0,0,0,2.535.64,11.986,11.986,0,0,1,3.875,1.27l.146-.46h0v.5l4.424.07.11-.16c.524-.79,1.779-.95,3-1.11l.414-.06c.695.07,1.377.14,2.072.22l2.084.69h.061a68.024,68.024,0,0,1,13.308.04l2.315.11h3.51l.085-.33c.024-.08.024-.15.049-.23l1.755.21c.926.11,1.852.22,2.779.34l.353-.02.012-.11,2.4-.54a5.081,5.081,0,0,0,1.341.18,5.347,5.347,0,0,0,2.194-.48l2.157-.03,2.121.12h0l1.56.09v.01l.707.03h.073l.11.01h0c4.351.18,8.689.35,13.04.53h.037l.024-.01a18.62,18.62,0,0,1,6.532-.08l.049.01,2.559-.5,1.706.17,2.437.29,3.4-.11a6.414,6.414,0,0,1,2.669.14,10.446,10.446,0,0,0,1.926.25,3.645,3.645,0,0,0,2.023-.56l1.024-.21,2.291.43c1.523-.09,3.035-.17,4.558-.26v-.03l3.863.5c-.012.06-.012.12-.024.18l-.1.59.439.02c4.4.22,8.8.43,13.259.64a21.586,21.586,0,0,1,6.008-.11c1.036.08,2.1.16,3.156.16a14.458,14.458,0,0,0,3.071-.3l2.108-.05.024.01a41.4,41.4,0,0,0,6.934.59c.926,0,1.852-.04,2.779-.1v.01l.171-.02a.286.286,0,0,0,.1-.01l.475-.04-.012-.04,1.621-.22h0a20.965,20.965,0,0,0,3.156.24,20.575,20.575,0,0,0,3.668-.33v-.01l4.387-.5a6.875,6.875,0,0,0,3.364.91,6.071,6.071,0,0,0,1.121-.1h3.071l4.436.11.049.4,2.291-.07,2.194-.96c.475.17.963.35,1.438.52l-.024.07.512.11.244.09.012-.04a26.42,26.42,0,0,0,7.678.44l2.4-.02c.987.08,1.986.17,2.974.26v.01l1.194.14v.02h.195l.524.06v-.05l12.5.25h0a14.877,14.877,0,0,1,1.694.2,13.529,13.529,0,0,0,2.072.21,3.293,3.293,0,0,0,2.072-.59c2.291-1.76,4.85-1.38,7.556-.98.341.05.695.1,1.048.15,1.072.15,2.194.21,3.266.28l1.4.09.085.03c.451.04.9.12,1.341.2a10.417,10.417,0,0,0,1.926.23,3.834,3.834,0,0,0,2.157-.61c.366-.04.719-.08,1.085-.13a5.422,5.422,0,0,0,3.254-.3,5.531,5.531,0,0,1,2.486-.39,13.67,13.67,0,0,0,7.568,2.01,25.963,25.963,0,0,0,4.375-.4h0a10.085,10.085,0,0,1,2.108.18,13.078,13.078,0,0,0,1.889.19,4.992,4.992,0,0,0,1.511-.22c.622.09,1.255.18,1.889.27l.329.05h.024c3.315-.14,6.617-.27,9.932-.41h.037a6.486,6.486,0,0,0,.877.07,6.175,6.175,0,0,0,2.352-.47,7.26,7.26,0,0,0,.792.06,2.025,2.025,0,0,0,1.889-.88l.122-.04a9.205,9.205,0,0,1,2.462.23,11.961,11.961,0,0,0,2.145.27,4.038,4.038,0,0,0,2.364-.71.732.732,0,0,0,.573-.19l1.024.1.073-.04a9.68,9.68,0,0,1,3.912-.59c2.072-.05,4.192-.11,5.435-1.71a2,2,0,0,0,.719-.15l1.462.48-.012.09,1.877.18.012-.03,3.217.1.366-.1c.232-.07.463-.13.658-.19a18.07,18.07,0,0,1,7.873.21l4.326-.08a56.706,56.706,0,0,1,14.478.72l.012-.16v.16l5.484.51c.573-.04,1.146-.11,1.706-.18a14.719,14.719,0,0,1,4.777-.03l.061.01.061-.02c1.731-.48,3.108-.61,4.241.31l.073.06,4.485.29.073.01.073-.04c2.011-1.1,4.387-1.24,7.458-.46l.146.04.122-.11a11.465,11.465,0,0,1,1.06-.82c1.072-.77,2-1.44,1.865-2.39-.1-.73-.743-1.32-3.473-1.8a.824.824,0,0,1-.037-.47c.183-.63,1.414-1.07,2.413-1.43a5.156,5.156,0,0,0,2.681-1.56l6.057-.94.073-.02a10.07,10.07,0,0,0,4.034-2.48l.158-.2-.39-2.38-.158-.11a1.029,1.029,0,0,1-.487-.55,1.686,1.686,0,0,1,.2-.8c3.388-.25,4.924-.87,5.313-2.14a3.087,3.087,0,0,0-.634-2.59l-.122-.18-.183.02a8.049,8.049,0,0,1-2.352-.22c-1.426-.27-2.9-.54-4.278.48a8.238,8.238,0,0,0-5.131,1.39c-.8.44-1.487.82-1.852.67a17.539,17.539,0,0,0-6.581-1.02,17.516,17.516,0,0,1-5.521-.72c.232-.69,1.1-1.29,1.95-1.87a6.229,6.229,0,0,0,2.108-1.94l17.988-.48.037.02.1-.02a12.858,12.858,0,0,1,1.828-.21c1.341-.09,2.608-.18,3.229-.96a3.528,3.528,0,0,1,4.2-1.3c.756.22,1.024.51,1.109.71a1.909,1.909,0,0,1-.037,1.04,4.1,4.1,0,0,0-.11,1.17l.024.33.232.09a2.209,2.209,0,0,0,2.023-.56c.853-.57,1.462-.99,2.291.25a4.877,4.877,0,0,0,.512.68,3.228,3.228,0,0,0,2.4,1.16,3.544,3.544,0,0,0,2.986-1.96c.743-1.28,2.108-1.6,3.693-1.98q.64-.15,1.316-.33a15.442,15.442,0,0,1,6.483-.1,22.021,22.021,0,0,0,4.387.26l.183-.01.1-.2c.232-.45.463-.69.719-.74.317-.05.695.18,1.146.69.122.22.244.45.366.67l.341.63.256-.14c1.267-.69,2.169-.86,2.669-.49a1.891,1.891,0,0,1,.585,1.3l.061.38,4.936.08.073-.04c.975-.54,1.95-1.09,2.925-1.63l.146-.08.061-.19a2.3,2.3,0,0,0,.061-.28,10.292,10.292,0,0,0,3.1-.79,8.347,8.347,0,0,1,3.7-.76,9.082,9.082,0,0,0,3.29.77,5.031,5.031,0,0,0,2.486-.66l3.9-.07c1.158.04,2.315.09,3.485.15,2.108.1,4.278.2,6.422.2.658,0,1.3-.01,1.962-.03l.646-.02c2.34-.06,5.228-.14,5.606-2.59l.256-.23.012-.14,1.84-.57.073-.01,4.387-.69.938.28a1.553,1.553,0,0,0,.658.2l.28.08-.049-.09a1.163,1.163,0,0,0,.183-.03c.39.03.731.05,1.024.05,1.085,0,1.67-.22,2.047-.72a3.085,3.085,0,0,0,.439-1.89c-.049-2.98-2.681-4.21-5.472-5.51-.317-.15-.634-.3-.963-.45a1.047,1.047,0,0,1,.012-.2,16.987,16.987,0,0,1,9.555.26,25.292,25.292,0,0,0,7.4,1.38,16.084,16.084,0,0,0,4.095-.54c.292-.08.609-.16.926-.25a14.206,14.206,0,0,1,6.2-.73,64.745,64.745,0,0,0,32.819-2.42c.573-.06,1.146-.14,1.718-.21,2.949-.38,5.728-.74,8.665.28a3.725,3.725,0,0,0,1.255.21,8.094,8.094,0,0,0,3.278-.96l1.3-.58-.707-.57A5.943,5.943,0,0,0,737.239,84.49ZM497.267,109.17ZM511.4,111.8ZM347.734,36.47ZM374.24,70.2ZM285.032,56.33Zm-44.08,54.49ZM147.54,123.69ZM52.628,102.91ZM535.522,79.29ZM409.741,131.72h0v0Z" transform="translate(0)" fill="#fa0"/>
    <path id="Path_4315" data-name="Path 4315" d="M514.54,130.34a16.09,16.09,0,0,1-2.82.3l-.69-.07c-9.19-.95-18.7-1.93-28.16-2.09a2.191,2.191,0,0,0-.05-1.03c-.37-1.1-1.66-1.04-2.91-1-.26.01-.5.02-.71.02-2.78-.05-5.6.05-8.33.15-1.08.04-2.16.08-3.24.11l-5.36-.97-.06.04a1.873,1.873,0,0,0-1.04,1.39,3.239,3.239,0,0,0,.59,2.03l.26-.27h0l-.06.49a5.391,5.391,0,0,0,3.16-.13,4.738,4.738,0,0,1,3.13-.06l.01.02.08.02.9.41-.12-.24c.79.17,1.59.35,2.38.54a39.633,39.633,0,0,0,9.13,1.4c.41,0,.82-.01,1.24-.04,1.48.13,2.95.26,4.43.4,5.8.53,11.73,1.08,17.7,1.08,2.55,0,5.1-.1,7.66-.34h.02a19.6,19.6,0,0,1,3.24.21,24.171,24.171,0,0,0,2.84.22,8.408,8.408,0,0,0,3.26-.59l.78-.32-.71-.61C518.99,129.6,516.73,129.98,514.54,130.34Z" transform="translate(104.332)" fill="#fa0"/>
    <path id="Path_4316" data-name="Path 4316" d="M609.63,54.42a4.536,4.536,0,0,0-3.55-.3,1.269,1.269,0,0,0-.85,1.16.968.968,0,0,0,.54.93,6.091,6.091,0,0,0,2.75.67,6.259,6.259,0,0,0,3.19-.92l-.08-.96A8.781,8.781,0,0,1,609.63,54.42Z" transform="translate(133.176)" fill="#fa0"/>
  </g>
</svg>
