<?xml version="1.0" encoding="UTF-8" standalone="no"?> <svg xmlns="http://www.w3.org/2000/svg" viewBox="0 0 71.54 72.11"><defs><style>.cls-1{isolation:isolate;}.cls-2{fill:#ffdc9f;}.cls-3{fill:#371438;}.cls-4{fill:#91af77;}.cls-5{fill:#fff;}.cls-6{fill:#fff4d1;}.cls-7{fill:#dd8136;opacity:0.5;mix-blend-mode:multiply;}.cls-8{fill:#ffb77b;}.cls-9{fill:#ff6161;}.cls-10{fill:#f49845;}</style></defs><title>Asset 1</title><g class="cls-1"><g id="Layer_2" data-name="Layer 2"><g id="Layer_1-2" data-name="Layer 1"><path class="cls-2" d="M60.2,32a9.93,9.93,0,0,1,5.55-8.9,6.63,6.63,0,0,1,2.84-8.88l1.7-7.15a4.86,4.86,0,0,0-6.12-5.78L36.28,9.64,4.59,19.1A4.87,4.87,0,0,0,1.28,25C4.07,35.69,14.43,61.8,50.05,70.84A4.86,4.86,0,0,0,56,67.25l6.8-28.56A9.89,9.89,0,0,1,60.2,32Z"/><path class="cls-3" d="M51.25,72.11a6.16,6.16,0,0,1-1.47-.18C13.64,62.75,3.07,36.26.2,25.29A6,6,0,0,1,4.27,18L63.85.26a5.91,5.91,0,0,1,5.82,1.38,5.93,5.93,0,0,1,1.71,5.73L69.56,15l-.45.24a5.52,5.52,0,0,0-2.36,7.39l.51,1-1,.5A8.78,8.78,0,0,0,63.6,37.94l.4.43L57.06,67.51a5.92,5.92,0,0,1-2.73,3.73A5.84,5.84,0,0,1,51.25,72.11ZM65.57,2.24a3.67,3.67,0,0,0-1.08.16L4.91,20.17a3.75,3.75,0,0,0-2.55,4.55c2.77,10.59,13,36.16,48,45A3.75,3.75,0,0,0,54.88,67l6.67-28a11,11,0,0,1,2.78-16.33,7.64,7.64,0,0,1-.42-2.51,7.73,7.73,0,0,1,3.7-6.61L69.2,6.86a3.72,3.72,0,0,0-1.07-3.59A3.68,3.68,0,0,0,65.57,2.24Z"/><path class="cls-4" d="M38.72,40.64A7.85,7.85,0,0,1,34,38.84a1.12,1.12,0,0,1-.1-1.58,1.11,1.11,0,0,1,1.57-.1,5.48,5.48,0,0,0,3.71,1.22A5.27,5.27,0,0,0,42.71,36a1.12,1.12,0,1,1,1.8,1.32,7.33,7.33,0,0,1-5.12,3.33A5.12,5.12,0,0,1,38.72,40.64Z"/><path class="cls-5" d="M30.1,18.65a7.34,7.34,0,0,0-1.39-.73,7.16,7.16,0,0,0-9,3.61,7.06,7.06,0,0,0,5.16,9.94,1.69,1.69,0,0,0,1.83-1l4.13-9.26A2.08,2.08,0,0,0,30.1,18.65Z"/><path class="cls-6" d="M30.94,19a6.64,6.64,0,0,0-1.4-.73,7.14,7.14,0,0,0-9,3.61,7.07,7.07,0,0,0,3.53,9.44,7.47,7.47,0,0,0,1.63.5,1.71,1.71,0,0,0,1.83-1l4.13-9.26A2.08,2.08,0,0,0,30.94,19Z"/><rect class="cls-6" x="26.53" y="19.22" width="5.3" height="13.31" rx="1.82" transform="translate(-6.33 41.98) rotate(-65.95)"/><path class="cls-3" d="M28.61,29.08a.59.59,0,0,1-.23,0l-4.16-1.86a3.21,3.21,0,1,1,2.62-5.86L31,23.16a.56.56,0,1,1-.46,1l-4.16-1.85a2.09,2.09,0,0,0-2.76,1.06,2.06,2.06,0,0,0,0,1.6,2.1,2.1,0,0,0,1.09,1.16L28.84,28a.55.55,0,0,1,.28.74A.57.57,0,0,1,28.61,29.08Z"/><path class="cls-7" d="M19.2,14.74,4.59,19.1A4.87,4.87,0,0,0,1.28,25C4.07,35.69,14.43,61.8,50.05,70.84A4.86,4.86,0,0,0,56,67.25l3.59-15.08C34.45,43.69,23.7,26.26,19.2,14.74Z"/><path class="cls-5" d="M56.32,39.46a5.69,5.69,0,1,0,0,11.38,5.57,5.57,0,0,0,2.54-.61l2-8.47A5.66,5.66,0,0,0,56.32,39.46Z"/><circle class="cls-5" cx="48.12" cy="23.85" r="9.06" transform="translate(16.99 67.61) rotate(-80.93)"/><path class="cls-8" d="M18.62,30.09a62.16,62.16,0,0,1-6-13.4L4.59,19.1A4.87,4.87,0,0,0,1.28,25C4.07,35.69,14.43,61.8,50.05,70.84A4.86,4.86,0,0,0,56,67.25l1.88-7.9A68.91,68.91,0,0,1,29.87,44"/><path class="cls-3" d="M51.25,72.11a6.16,6.16,0,0,1-1.47-.18C13.64,62.75,3.07,36.26.2,25.29A6,6,0,0,1,4.27,18L13.4,15.3l.32,1.06a61.32,61.32,0,0,0,5.86,13.16,1.12,1.12,0,1,1-1.92,1.14,63.32,63.32,0,0,1-5.74-12.58l-7,2.09a3.75,3.75,0,0,0-2.55,4.55c2.77,10.59,13,36.16,48,45A3.75,3.75,0,0,0,54.88,67l1.64-6.87a69.94,69.94,0,0,1-27.41-15.3,1.12,1.12,0,1,1,1.52-1.64,68.11,68.11,0,0,0,27.53,15.1l1,.3-2.13,8.93a5.92,5.92,0,0,1-2.73,3.73A5.84,5.84,0,0,1,51.25,72.11Z"/><path class="cls-4" d="M39.07,18.93H39a7.32,7.32,0,0,1-5.55-2.55A7.63,7.63,0,0,1,32,10.86a1.12,1.12,0,0,1,2.21.34,5.41,5.41,0,0,0,1,3.79,5.24,5.24,0,0,0,3.94,1.7,1.12,1.12,0,0,1-.07,2.24Z"/><path class="cls-9" d="M57.35,40A5.7,5.7,0,1,0,59.9,50.75l2-8.48A5.7,5.7,0,0,0,57.35,40Z"/><path class="cls-10" d="M25.77,39.84a60.75,60.75,0,0,1-4.84-6.15"/><path class="cls-3" d="M25.77,41a1.09,1.09,0,0,1-.83-.37A62.34,62.34,0,0,1,20,34.33a1.12,1.12,0,1,1,1.85-1.27,60.37,60.37,0,0,0,4.75,6A1.11,1.11,0,0,1,25.77,41Z"/><path class="cls-9" d="M51.66,11.08a9.65,9.65,0,0,0,9.62-8.89L44,7.33A9.64,9.64,0,0,0,51.66,11.08Z"/><path class="cls-4" d="M57.68,14.69a1.11,1.11,0,0,1-.63-.19,1.13,1.13,0,0,1-.3-1.56,7.43,7.43,0,0,1,5-3.49,7.64,7.64,0,0,1,5.46,1.6,1.1,1.1,0,0,1,.15,1.57,1.12,1.12,0,0,1-1.57.15,5.47,5.47,0,0,0-3.74-1.1,5.27,5.27,0,0,0-3.47,2.54A1.13,1.13,0,0,1,57.68,14.69Z"/><circle class="cls-9" cx="49.33" cy="25.23" r="9.06" transform="translate(13.09 67.13) rotate(-76.22)"/><path class="cls-3" d="M51.25,72.11a6.16,6.16,0,0,1-1.47-.18C13.64,62.75,3.07,36.26.2,25.29A6,6,0,0,1,4.27,18L63.85.26a5.91,5.91,0,0,1,5.82,1.38,5.93,5.93,0,0,1,1.71,5.73L69.56,15l-.45.24a5.52,5.52,0,0,0-2.36,7.39l.51,1-1,.5A8.78,8.78,0,0,0,63.6,37.94l.4.43L57.06,67.51a5.92,5.92,0,0,1-2.73,3.73A5.84,5.84,0,0,1,51.25,72.11ZM65.57,2.24a3.67,3.67,0,0,0-1.08.16L4.91,20.17a3.75,3.75,0,0,0-2.55,4.55c2.77,10.59,13,36.16,48,45A3.75,3.75,0,0,0,54.88,67l6.67-28a11,11,0,0,1,2.78-16.33,7.64,7.64,0,0,1-.42-2.51,7.73,7.73,0,0,1,3.7-6.61L69.2,6.86a3.72,3.72,0,0,0-1.07-3.59A3.68,3.68,0,0,0,65.57,2.24Z"/><path class="cls-5" d="M19.76,49.07a1.14,1.14,0,0,1-.83-.37A77,77,0,0,1,10,36.45,1.12,1.12,0,0,1,12,35.31,73.71,73.71,0,0,0,20.59,47.2a1.11,1.11,0,0,1-.08,1.58A1.09,1.09,0,0,1,19.76,49.07Z"/><path class="cls-5" d="M8.51,32.48a1.11,1.11,0,0,1-1-.61,74,74,0,0,1-3.36-7.41,1.12,1.12,0,1,1,2.1-.77,70.91,70.91,0,0,0,3.25,7.16A1.13,1.13,0,0,1,9,32.36,1.2,1.2,0,0,1,8.51,32.48Z"/></g></g></g></svg>