<?xml version="1.0" encoding="iso-8859-1"?>
<!-- Generator: Adobe Illustrator 19.0.0, SVG Export Plug-In . SVG Version: 6.00 Build 0)  -->
<svg version="1.1" id="Layer_1" xmlns="http://www.w3.org/2000/svg" xmlns:xlink="http://www.w3.org/1999/xlink" x="0px" y="0px"
	 viewBox="0 0 512 512" style="enable-background:new 0 0 512 512;" xml:space="preserve">
<g>
	<path style="fill:#E54728;" d="M421.635,208.627l-18.005,20.946l-13.368-20.946l-28.479-24.387l28.479-63.141
		C409.86,144.893,421.635,175.382,421.635,208.627z"/>
	<path style="fill:#E54728;" d="M324.006,76.834l27.316,91.132l-27.316,107.463c-7.335,3.743-15.623,5.847-24.364,5.847h-10.508
		l-34.291-105.173l34.291-105.104C301.223,71.441,312.905,73.452,324.006,76.834z"/>
	<path style="fill:#E54728;" d="M222.878,70.999l24.991,91.155l-24.991,120.285H212.37c-8.741,0-17.029-2.104-24.364-5.847
		L156.04,163.316l31.966-86.482C199.107,73.452,210.789,71.441,222.878,70.999z"/>
</g>
<g>
	<path style="fill:#F7B239;" d="M188.006,40.486v233.781c-2.906,25.05-29.164,30.129-30.803,11.101l-29.06-40.684l-6.382-36.057
		V61.409l31.385-9.915L188.006,40.486z"/>
	<path style="fill:#F7B239;" d="M390.262,32.535v176.091l-0.581,80.228l-55.795,19.761c-1.639,19.028-26.735-4.65-9.88-34.349
		V51.715l31.385-9.09L390.262,32.535z"/>
	<polygon style="fill:#F7B239;" points="289.134,0 289.134,300.479 222.878,300.479 222.878,13.949 254.262,7.346 	"/>
</g>
<polygon style="fill:#F95428;" points="397.051,449.231 390.634,512 174.638,512 131.025,449.231 244.382,391.146 "/>
<g>
	<polygon style="fill:#E09B2D;" points="153.146,51.494 153.146,208.627 121.761,208.627 121.761,61.409 	"/>
	<polygon style="fill:#E09B2D;" points="254.262,7.346 254.262,280.114 222.878,280.114 222.878,13.949 	"/>
	<path style="fill:#E09B2D;" d="M355.391,42.625v166.002h-0.349l-1.941,22.434c-1.639,19.028-13.089,35.035-29.095,43.206V51.715
		L355.391,42.625z"/>
</g>
<path style="fill:#F95428;" d="M421.635,208.627l-12.833,125.539l-163.258,38.382l-124.376-29.06l2.325-12.786L90.365,208.627h0.012
	h31.385h35.209l1.93,22.434c1.639,19.028,13.089,35.035,29.106,43.206c7.335,3.743,15.623,5.847,24.364,5.847h10.508h66.256h10.508
	c8.741,0,17.029-2.104,24.364-5.847c16.006-8.172,27.456-24.178,29.095-43.206l1.941-22.434h35.221L421.635,208.627L421.635,208.627
	z"/>
<polygon style="fill:#E6E6E6;" points="408.803,334.165 397.051,449.231 114.961,449.231 103.197,334.165 103.209,334.165 "/>
<polygon style="fill:#CCCCCC;" points="168.431,449.231 114.961,449.231 103.197,334.165 156.668,334.165 "/>
<g>
	<polygon style="fill:#E54728;" points="174.847,512 121.377,512 114.961,449.231 168.431,449.231 	"/>
	<path style="fill:#E54728;" d="M143.835,208.627h-22.074v-87.54c-19.61,23.794-31.385,54.295-31.385,87.54h-0.012l12.833,125.539
		h53.47L143.835,208.627z"/>
</g>
<g>
</g>
<g>
</g>
<g>
</g>
<g>
</g>
<g>
</g>
<g>
</g>
<g>
</g>
<g>
</g>
<g>
</g>
<g>
</g>
<g>
</g>
<g>
</g>
<g>
</g>
<g>
</g>
<g>
</g>
</svg>
