<svg xmlns="http://www.w3.org/2000/svg" width="20.912" height="19.939" viewBox="0 0 20.912 19.939">
  <path id="Path_4240" data-name="Path 4240" d="M252.662-154.157v.286a6.55,6.55,0,0,1-.481.515q-2.363,2.058-4.736,4.1a.254.254,0,0,0-.1.294c.286,1.2.564,2.408.844,3.612q.328,1.41.655,2.819a.525.525,0,0,1-.494.7.916.916,0,0,1-.413-.145q-2.772-1.663-5.536-3.339a.311.311,0,0,0-.379-.009c-1.859,1.13-3.724,2.249-5.586,3.375a.562.562,0,0,1-.683.017.559.559,0,0,1-.181-.641c.494-2.11.981-4.222,1.479-6.331a.342.342,0,0,0-.132-.4q-2.4-2.064-4.783-4.142a4.643,4.643,0,0,1-.39-.433v-.286a.632.632,0,0,1,.54-.4q1.271-.1,2.542-.212c1.349-.116,2.7-.237,4.046-.348a.254.254,0,0,0,.248-.185c.4-.953.8-1.9,1.2-2.855q.674-1.6,1.349-3.192a.547.547,0,0,1,.609-.4.587.587,0,0,1,.455.418q1.265,3.006,2.533,6.01a.283.283,0,0,0,.277.207c.468.029.936.073,1.4.114,1.674.145,3.347.3,5.022.43A.716.716,0,0,1,252.662-154.157Z" transform="translate(-231.75 161.758)" fill="#fa0"/>
</svg>
