<svg xmlns="http://www.w3.org/2000/svg" width="28.678" height="23.25" viewBox="0 0 28.678 23.25">
  <g id="Group_1350" data-name="Group 1350" transform="translate(-73.153 -515.113)">
    <g id="Group_1349" data-name="Group 1349" transform="translate(73.153 515.113)">
      <path id="Path_4260" data-name="Path 4260" d="M84.434,515.264Z" transform="translate(-56.736 -514.893)" fill="#a80e0e"/>
      <path id="Path_4261" data-name="Path 4261" d="M99.724,518.406a3.828,3.828,0,0,1-1.112.145l.02-.118a9.145,9.145,0,0,0,2.234-2.551c.083-.29-.015-.388-.017-.4l-1.866.793-1.559.7h0a6.227,6.227,0,0,0-4.535-1.869c-3.246,0-5.876,2.3-5.876,5.137a7.546,7.546,0,0,0,.241,1.937c0,.15,0-.15,0,0a18.272,18.272,0,0,1-7.155-2.124c-4.707-2.384-5-4.034-5-4.034-.739.786-1.12,3.383-.371,5.421a6.75,6.75,0,0,0,2.129,2.475h0a4.945,4.945,0,0,1-1.51-.248,3.352,3.352,0,0,1-1.066-.518c-.459,1.12.464,3.118,2.055,4.555a8.472,8.472,0,0,0,2.625,1.36l-2.649.074c-.15,2.576,5.4,4.105,5.4,4.105h0a9.075,9.075,0,0,1-5.534,2.011,10.528,10.528,0,0,1-3.023-.444,14.4,14.4,0,0,0,9.838,3.526c9.9-.521,15.5-9.036,15.761-17.4l.015.017a7.036,7.036,0,0,0,1.456-1.225,10.223,10.223,0,0,0,1.608-2.153S100.348,518.234,99.724,518.406Z" transform="translate(-73.153 -515.113)" fill="#a80e0e"/>
      <path id="Path_4262" data-name="Path 4262" d="M84.434,515.264c0,.16,0,.017,0,0Z" transform="translate(-56.736 -514.893)" fill="#a80e0e"/>
    </g>
  </g>
</svg>
